<svg width="500" height="500" viewBox="0 0 500 500" fill="none" xmlns="http://www.w3.org/2000/svg">
<g clip-path="url(#clip0_150_1127)">
<rect width="500" height="500" rx="96" fill="#F9AA01"/>
<g style="mix-blend-mode:overlay" opacity="0.8" filter="url(#filter0_f_150_1127)">
<circle cx="250" cy="250" r="166" fill="#FEC039"/>
</g>
<circle cx="245.658" cy="240.984" r="143.916" stroke="black" stroke-width="3.99766" stroke-dasharray="8 6"/>
<rect width="21.8303" height="13.3408" transform="matrix(-0.742021 0.670377 0.670377 0.742021 103.722 195.228)" fill="white"/>
<path d="M109.748 118.552C101.943 117.268 94.7828 117.787 89.5662 119.496C84.1578 121.267 81.827 123.911 81.4523 126.188C81.0779 128.465 82.4393 131.716 86.995 135.126C91.3894 138.416 98.0057 141.202 105.811 142.486C113.616 143.77 120.777 143.25 125.993 141.541C131.401 139.77 133.732 137.127 134.107 134.85C134.482 132.572 133.12 129.321 128.565 125.911C124.17 122.621 117.553 119.836 109.748 118.552Z" fill="white" stroke="black" stroke-width="7.27678"/>
<path d="M114.76 138.878C105.443 150.431 100.157 163.213 98.9967 174.413C97.8322 185.655 100.827 194.796 107.345 200.052C113.862 205.308 123.43 206.297 134.169 202.777C144.869 199.27 156.241 191.396 165.558 179.843C174.874 168.291 180.16 155.509 181.32 144.309C182.484 133.067 179.49 123.926 172.973 118.67C166.455 113.414 156.887 112.424 146.147 115.944C135.447 119.451 124.076 127.326 114.76 138.878Z" fill="url(#paint0_linear_150_1127)" stroke="black" stroke-width="7.27678"/>
<path d="M90.16 140.467C82.6313 142.892 76.5003 146.627 72.6414 150.531C68.6406 154.578 67.7761 157.995 68.4838 160.192C69.1916 162.389 71.8883 164.658 77.499 165.608C82.911 166.526 90.0693 165.98 97.5981 163.554C105.127 161.129 111.258 157.393 115.117 153.489C119.118 149.442 119.983 146.025 119.275 143.829C118.568 141.632 115.871 139.362 110.26 138.411C104.848 137.494 97.6889 138.041 90.16 140.467Z" fill="white" stroke="black" stroke-width="7.27678"/>
<path d="M125.314 125.053C126.312 136.409 136.029 160.974 171.787 173.779M109.742 161.186C113.445 172.823 125.932 194.122 154.558 191.796M100.513 190.772L85.8849 225.235L118.298 204.125" stroke="black" stroke-width="7.27678"/>
<circle cx="6.06398" cy="6.06398" r="6.06398" transform="matrix(-0.742021 0.670377 0.670377 0.742021 158.121 121.565)" fill="black"/>
<rect width="21.6859" height="13.2688" transform="matrix(0.587062 -0.809542 -0.802401 -0.596785 377.103 287.445)" fill="white"/>
<path d="M386.7 363.73C394.498 363.437 401.306 361.507 405.997 358.804C410.854 356.006 412.583 352.962 412.487 350.646C412.39 348.33 410.414 345.426 405.341 343.002C400.441 340.66 393.493 339.249 385.695 339.543C377.898 339.837 371.089 341.765 366.398 344.468C361.542 347.266 359.814 350.31 359.91 352.626C360.006 354.942 361.981 357.846 367.054 360.271C371.955 362.612 378.903 364.024 386.7 363.73Z" fill="white" stroke="black" stroke-width="7.31415"/>
<path d="M377.72 344.816C384.41 331.651 386.952 318.085 385.821 306.891C384.686 295.653 379.953 287.314 372.61 283.473C365.267 279.632 355.826 280.556 346.146 286.137C336.504 291.696 327.087 301.665 320.398 314.83C313.709 327.995 311.167 341.561 312.297 352.755C313.432 363.993 318.166 372.332 325.509 376.173C332.851 380.014 342.292 379.09 351.972 373.509C361.615 367.95 371.031 357.981 377.72 344.816Z" fill="url(#paint1_linear_150_1127)" stroke="black" stroke-width="7.31415"/>
<path d="M401.236 338.37C408.023 334.504 413.193 329.636 416.134 325.057C419.179 320.315 419.335 316.804 418.205 314.787C417.075 312.771 414.012 311.094 408.412 311.277C403.005 311.454 396.201 313.408 389.415 317.274C382.628 321.141 377.457 326.009 374.516 330.588C371.471 335.329 371.316 338.84 372.446 340.856C373.576 342.873 376.638 344.551 382.238 344.368C387.646 344.191 394.449 342.237 401.236 338.37Z" fill="white" stroke="black" stroke-width="7.31415"/>
<path d="M370.328 360.477C367.077 349.551 352.731 327.421 315.549 321.987M378.126 321.987C372.201 311.325 355.831 292.944 328.597 300.914M381.104 291.172L388.325 254.505L361.206 281.628" stroke="black" stroke-width="7.31415"/>
<ellipse cx="6.02385" cy="6.03125" rx="6.02385" ry="6.03125" transform="matrix(0.587062 -0.809542 -0.802401 -0.596785 339.283 370.416)" fill="black"/>
</g>
<defs>
<filter id="filter0_f_150_1127" x="-237.4" y="-237.4" width="974.8" height="974.8" filterUnits="userSpaceOnUse" color-interpolation-filters="sRGB">
<feFlood flood-opacity="0" result="BackgroundImageFix"/>
<feBlend mode="normal" in="SourceGraphic" in2="BackgroundImageFix" result="shape"/>
<feGaussianBlur stdDeviation="160.7" result="effect1_foregroundBlur_150_1127"/>
</filter>
<linearGradient id="paint0_linear_150_1127" x1="111.927" y1="136.594" x2="168.39" y2="182.127" gradientUnits="userSpaceOnUse">
<stop stop-color="#FFE090"/>
<stop offset="1" stop-color="#EDB21B"/>
</linearGradient>
<linearGradient id="paint1_linear_150_1127" x1="380.961" y1="346.511" x2="316.771" y2="313.896" gradientUnits="userSpaceOnUse">
<stop stop-color="#FFE090"/>
<stop offset="1" stop-color="#EDB21B"/>
</linearGradient>
<clipPath id="clip0_150_1127">
<rect width="500" height="500" rx="96" fill="white"/>
</clipPath>
</defs>
</svg>
